<?xml version="1.0" encoding="UTF-8" standalone="no"?>
<!DOCTYPE svg PUBLIC "-//W3C//DTD SVG 1.1//EN"
 "http://www.w3.org/Graphics/SVG/1.1/DTD/svg11.dtd">
<!-- Generated by graphviz version 2.42.4 (0)
 -->
<!-- Title: finite_state_machine Pages: 1 -->
<svg width="422pt" height="136pt"
 viewBox="0.00 0.00 422.00 136.00" xmlns="http://www.w3.org/2000/svg" xmlns:xlink="http://www.w3.org/1999/xlink">
<g id="graph0" class="graph" transform="scale(1 1) rotate(0) translate(4 132)">
<title>finite_state_machine</title>
<polygon fill="white" stroke="transparent" points="-4,4 -4,-132 418,-132 418,4 -4,4"/>
<!-- 4 -->
<g id="node1" class="node">
<title>4</title>
<ellipse fill="none" stroke="black" cx="297" cy="-64" rx="27" ry="18"/>
<text text-anchor="middle" x="297" y="-60.3" font-family="Times,serif" font-size="14.00">4</text>
</g>
<!-- 5 -->
<g id="node6" class="node">
<title>5</title>
<ellipse fill="none" stroke="black" cx="387" cy="-87" rx="27" ry="18"/>
<text text-anchor="middle" x="387" y="-83.3" font-family="Times,serif" font-size="14.00">5</text>
</g>
<!-- 4&#45;&gt;5 -->
<g id="edge1" class="edge">
<title>4&#45;&gt;5</title>
<path fill="none" stroke="black" d="M322.51,-70.41C331.57,-72.77 342.01,-75.5 351.78,-78.05"/>
<polygon fill="black" stroke="black" points="351.06,-81.49 361.62,-80.63 352.83,-74.71 351.06,-81.49"/>
</g>
<!-- 1 -->
<g id="node2" class="node">
<title>1</title>
<ellipse fill="none" stroke="black" cx="207" cy="-110" rx="27" ry="18"/>
<text text-anchor="middle" x="207" y="-106.3" font-family="Times,serif" font-size="14.00">1</text>
</g>
<!-- 1&#45;&gt;4 -->
<g id="edge3" class="edge">
<title>1&#45;&gt;4</title>
<path fill="none" stroke="black" d="M228.85,-99.1C240.03,-93.26 254,-85.96 266.29,-79.53"/>
<polygon fill="black" stroke="black" points="268.05,-82.56 275.29,-74.82 264.81,-76.35 268.05,-82.56"/>
</g>
<!-- 1&#45;&gt;5 -->
<g id="edge2" class="edge">
<title>1&#45;&gt;5</title>
<path fill="none" stroke="black" d="M233.88,-106.66C264.55,-102.69 315.83,-96.07 350.27,-91.62"/>
<polygon fill="black" stroke="black" points="350.91,-95.06 360.37,-90.31 350.01,-88.12 350.91,-95.06"/>
</g>
<!-- 3 -->
<g id="node3" class="node">
<title>3</title>
<ellipse fill="none" stroke="black" cx="117" cy="-64" rx="27" ry="18"/>
<text text-anchor="middle" x="117" y="-60.3" font-family="Times,serif" font-size="14.00">3</text>
</g>
<!-- 3&#45;&gt;4 -->
<g id="edge6" class="edge">
<title>3&#45;&gt;4</title>
<path fill="none" stroke="black" d="M144.26,-64C174.85,-64 225.55,-64 259.84,-64"/>
<polygon fill="black" stroke="black" points="259.92,-67.5 269.92,-64 259.92,-60.5 259.92,-67.5"/>
</g>
<!-- 3&#45;&gt;1 -->
<g id="edge4" class="edge">
<title>3&#45;&gt;1</title>
<path fill="none" stroke="black" d="M138.85,-74.9C150.03,-80.74 164,-88.04 176.29,-94.47"/>
<polygon fill="black" stroke="black" points="174.81,-97.65 185.29,-99.18 178.05,-91.44 174.81,-97.65"/>
</g>
<!-- 2 -->
<g id="node4" class="node">
<title>2</title>
<ellipse fill="none" stroke="black" cx="207" cy="-18" rx="27" ry="18"/>
<text text-anchor="middle" x="207" y="-14.3" font-family="Times,serif" font-size="14.00">2</text>
</g>
<!-- 3&#45;&gt;2 -->
<g id="edge5" class="edge">
<title>3&#45;&gt;2</title>
<path fill="none" stroke="black" d="M138.85,-53.1C150.03,-47.26 164,-39.96 176.29,-33.53"/>
<polygon fill="black" stroke="black" points="178.05,-36.56 185.29,-28.82 174.81,-30.35 178.05,-36.56"/>
</g>
<!-- 2&#45;&gt;4 -->
<g id="edge7" class="edge">
<title>2&#45;&gt;4</title>
<path fill="none" stroke="black" d="M228.85,-28.9C240.03,-34.74 254,-42.04 266.29,-48.47"/>
<polygon fill="black" stroke="black" points="264.81,-51.65 275.29,-53.18 268.05,-45.44 264.81,-51.65"/>
</g>
<!-- 0 -->
<g id="node5" class="node">
<title>0</title>
<ellipse fill="none" stroke="black" cx="27" cy="-64" rx="27" ry="18"/>
<text text-anchor="middle" x="27" y="-60.3" font-family="Times,serif" font-size="14.00">0</text>
</g>
<!-- 0&#45;&gt;1 -->
<g id="edge8" class="edge">
<title>0&#45;&gt;1</title>
<path fill="none" stroke="black" d="M49.03,-74.72C60.81,-80.32 75.92,-86.85 90,-91 116.14,-98.7 146.58,-103.54 169.71,-106.4"/>
<polygon fill="black" stroke="black" points="169.45,-109.9 179.79,-107.58 170.26,-102.94 169.45,-109.9"/>
</g>
<!-- 0&#45;&gt;3 -->
<g id="edge9" class="edge">
<title>0&#45;&gt;3</title>
<path fill="none" stroke="black" d="M54.4,-64C62.39,-64 71.31,-64 79.82,-64"/>
<polygon fill="black" stroke="black" points="79.92,-67.5 89.92,-64 79.92,-60.5 79.92,-67.5"/>
</g>
<!-- 0&#45;&gt;2 -->
<g id="edge10" class="edge">
<title>0&#45;&gt;2</title>
<path fill="none" stroke="black" d="M49.03,-53.28C60.81,-47.68 75.92,-41.15 90,-37 116.14,-29.3 146.58,-24.46 169.71,-21.6"/>
<polygon fill="black" stroke="black" points="170.26,-25.06 179.79,-20.42 169.45,-18.1 170.26,-25.06"/>
</g>
</g>
</svg>
