<?xml version="1.0" encoding="UTF-8" standalone="no"?>
<!DOCTYPE svg PUBLIC "-//W3C//DTD SVG 1.1//EN"
 "http://www.w3.org/Graphics/SVG/1.1/DTD/svg11.dtd">
<!-- Generated by graphviz version 2.42.4 (0)
 -->
<!-- Title: finite_state_machine Pages: 1 -->
<svg width="577pt" height="403pt"
 viewBox="0.00 0.00 577.00 403.00" xmlns="http://www.w3.org/2000/svg" xmlns:xlink="http://www.w3.org/1999/xlink">
<g id="graph0" class="graph" transform="scale(1 1) rotate(0) translate(4 399)">
<title>finite_state_machine</title>
<polygon fill="white" stroke="transparent" points="-4,4 -4,-399 573,-399 573,4 -4,4"/>
<!-- 5 -->
<g id="node1" class="node">
<title>5</title>
<ellipse fill="none" stroke="black" cx="27" cy="-300" rx="27" ry="18"/>
<text text-anchor="middle" x="27" y="-296.3" font-family="Helvetica,Arial,sans-serif" font-size="14.00">5</text>
</g>
<!-- 4 -->
<g id="node2" class="node">
<title>4</title>
<ellipse fill="none" stroke="black" cx="130" cy="-203" rx="27" ry="18"/>
<text text-anchor="middle" x="130" y="-199.3" font-family="Helvetica,Arial,sans-serif" font-size="14.00">4</text>
</g>
<!-- 5&#45;&gt;4 -->
<g id="edge1" class="edge">
<title>5&#45;&gt;4</title>
<path fill="none" stroke="black" d="M43.34,-285.27C60.12,-269.15 87.19,-243.16 106.4,-224.7"/>
<polygon fill="black" stroke="black" points="109.06,-227 113.85,-217.55 104.21,-221.96 109.06,-227"/>
<text text-anchor="middle" x="78.5" y="-260.8" font-family="Helvetica,Arial,sans-serif" font-size="14.00">7</text>
</g>
<!-- 1 -->
<g id="node3" class="node">
<title>1</title>
<ellipse fill="none" stroke="black" cx="439" cy="-300" rx="27" ry="18"/>
<text text-anchor="middle" x="439" y="-296.3" font-family="Helvetica,Arial,sans-serif" font-size="14.00">1</text>
</g>
<!-- 5&#45;&gt;1 -->
<g id="edge2" class="edge">
<title>5&#45;&gt;1</title>
<path fill="none" stroke="black" d="M38.5,-316.58C54.79,-340.01 88.51,-380 129,-380 129,-380 129,-380 337,-380 373.06,-380 403.75,-348.28 421.54,-324.79"/>
<polygon fill="black" stroke="black" points="424.46,-326.73 427.5,-316.58 418.79,-322.61 424.46,-326.73"/>
<text text-anchor="middle" x="233" y="-383.8" font-family="Helvetica,Arial,sans-serif" font-size="14.00">10</text>
</g>
<!-- 4&#45;&gt;5 -->
<g id="edge3" class="edge">
<title>4&#45;&gt;5</title>
<path fill="none" stroke="black" d="M104.37,-209.07C93.55,-212.65 81.23,-218.08 72,-226 57.16,-238.73 45.99,-257.78 38.62,-273.36"/>
<polygon fill="black" stroke="black" points="35.41,-271.97 34.53,-282.53 41.8,-274.83 35.41,-271.97"/>
<text text-anchor="middle" x="78.5" y="-229.8" font-family="Helvetica,Arial,sans-serif" font-size="14.00">&#45;7</text>
</g>
<!-- 3 -->
<g id="node4" class="node">
<title>3</title>
<ellipse fill="none" stroke="black" cx="542" cy="-155" rx="27" ry="18"/>
<text text-anchor="middle" x="542" y="-151.3" font-family="Helvetica,Arial,sans-serif" font-size="14.00">3</text>
</g>
<!-- 4&#45;&gt;3 -->
<g id="edge4" class="edge">
<title>4&#45;&gt;3</title>
<path fill="none" stroke="black" d="M134.16,-184.97C142.37,-144.7 168.32,-51 232,-51 232,-51 232,-51 440,-51 483.15,-51 513.8,-97.64 529.35,-128.46"/>
<polygon fill="black" stroke="black" points="526.37,-130.34 533.86,-137.83 532.67,-127.3 526.37,-130.34"/>
<text text-anchor="middle" x="336" y="-54.8" font-family="Helvetica,Arial,sans-serif" font-size="14.00">2</text>
</g>
<!-- 2 -->
<g id="node6" class="node">
<title>2</title>
<ellipse fill="none" stroke="black" cx="233" cy="-165" rx="27" ry="18"/>
<text text-anchor="middle" x="233" y="-161.3" font-family="Helvetica,Arial,sans-serif" font-size="14.00">2</text>
</g>
<!-- 4&#45;&gt;2 -->
<g id="edge5" class="edge">
<title>4&#45;&gt;2</title>
<path fill="none" stroke="black" d="M144.4,-187.48C152.38,-179.44 163.22,-170.41 175,-166 181.6,-163.53 188.94,-162.35 196.1,-161.95"/>
<polygon fill="black" stroke="black" points="196.38,-165.44 206.34,-161.84 196.31,-158.44 196.38,-165.44"/>
<text text-anchor="middle" x="181.5" y="-169.8" font-family="Helvetica,Arial,sans-serif" font-size="14.00">6</text>
</g>
<!-- 1&#45;&gt;5 -->
<g id="edge6" class="edge">
<title>1&#45;&gt;5</title>
<path fill="none" stroke="black" d="M416.45,-309.98C396.34,-318.37 365.28,-329 337,-329 129,-329 129,-329 129,-329 104.81,-329 78.58,-321.22 58.92,-313.72"/>
<polygon fill="black" stroke="black" points="60.14,-310.44 49.55,-309.98 57.54,-316.94 60.14,-310.44"/>
<text text-anchor="middle" x="233" y="-332.8" font-family="Helvetica,Arial,sans-serif" font-size="14.00">&#45;11</text>
</g>
<!-- 1&#45;&gt;4 -->
<g id="edge7" class="edge">
<title>1&#45;&gt;4</title>
<path fill="none" stroke="black" d="M414.34,-292.52C360.13,-275.4 226.81,-233.27 164.33,-213.53"/>
<polygon fill="black" stroke="black" points="165.17,-210.13 154.58,-210.45 163.06,-216.8 165.17,-210.13"/>
<text text-anchor="middle" x="284.5" y="-255.8" font-family="Helvetica,Arial,sans-serif" font-size="14.00">1</text>
</g>
<!-- 1&#45;&gt;3 -->
<g id="edge8" class="edge">
<title>1&#45;&gt;3</title>
<path fill="none" stroke="black" d="M455.79,-285.75C468,-274.2 484.83,-257.09 497,-240 509.97,-221.78 521.46,-199.23 529.45,-181.93"/>
<polygon fill="black" stroke="black" points="532.81,-182.98 533.73,-172.42 526.43,-180.11 532.81,-182.98"/>
<text text-anchor="middle" x="490.5" y="-259.8" font-family="Helvetica,Arial,sans-serif" font-size="14.00">5</text>
</g>
<!-- 0 -->
<g id="node5" class="node">
<title>0</title>
<ellipse fill="none" stroke="black" cx="336" cy="-203" rx="27" ry="18"/>
<text text-anchor="middle" x="336" y="-199.3" font-family="Helvetica,Arial,sans-serif" font-size="14.00">0</text>
</g>
<!-- 1&#45;&gt;0 -->
<g id="edge9" class="edge">
<title>1&#45;&gt;0</title>
<path fill="none" stroke="black" d="M428.99,-283.28C421.07,-269.66 408.55,-250.54 394,-237 386.16,-229.7 376.49,-223.22 367.36,-217.92"/>
<polygon fill="black" stroke="black" points="368.94,-214.8 358.49,-213.03 365.56,-220.93 368.94,-214.8"/>
<text text-anchor="middle" x="387.5" y="-240.8" font-family="Helvetica,Arial,sans-serif" font-size="14.00">3</text>
</g>
<!-- 3&#45;&gt;4 -->
<g id="edge12" class="edge">
<title>3&#45;&gt;4</title>
<path fill="none" stroke="black" d="M538.02,-136.92C530.13,-96.03 504.72,0 440,0 232,0 232,0 232,0 154.87,0 136.64,-118.92 132.33,-174.72"/>
<polygon fill="black" stroke="black" points="128.82,-174.77 131.64,-184.99 135.81,-175.24 128.82,-174.77"/>
<text text-anchor="middle" x="336" y="-3.8" font-family="Helvetica,Arial,sans-serif" font-size="14.00">&#45;3</text>
</g>
<!-- 3&#45;&gt;1 -->
<g id="edge10" class="edge">
<title>3&#45;&gt;1</title>
<path fill="none" stroke="black" d="M538.84,-173.18C534.88,-198.92 524.2,-246.06 497,-275 490.71,-281.69 482.31,-286.7 473.9,-290.4"/>
<polygon fill="black" stroke="black" points="472.56,-287.16 464.51,-294.04 475.1,-293.69 472.56,-287.16"/>
<text text-anchor="middle" x="490.5" y="-287.8" font-family="Helvetica,Arial,sans-serif" font-size="14.00">&#45;6</text>
</g>
<!-- 3&#45;&gt;0 -->
<g id="edge13" class="edge">
<title>3&#45;&gt;0</title>
<path fill="none" stroke="black" d="M526.94,-170.26C518.93,-178 508.25,-186.85 497,-192 457.48,-210.1 406.67,-210.22 373.02,-207.55"/>
<polygon fill="black" stroke="black" points="373.02,-204.04 362.74,-206.61 372.38,-211.01 373.02,-204.04"/>
<text text-anchor="middle" x="439" y="-211.8" font-family="Helvetica,Arial,sans-serif" font-size="14.00">5</text>
</g>
<!-- 3&#45;&gt;2 -->
<g id="edge11" class="edge">
<title>3&#45;&gt;2</title>
<path fill="none" stroke="black" d="M514.79,-153.71C467.41,-151.71 364.38,-148.88 278,-157 275.1,-157.27 272.11,-157.64 269.11,-158.06"/>
<polygon fill="black" stroke="black" points="268.34,-154.64 259.03,-159.68 269.45,-161.55 268.34,-154.64"/>
<text text-anchor="middle" x="387.5" y="-155.8" font-family="Helvetica,Arial,sans-serif" font-size="14.00">&#45;1</text>
</g>
<!-- 0&#45;&gt;1 -->
<g id="edge14" class="edge">
<title>0&#45;&gt;1</title>
<path fill="none" stroke="black" d="M349.96,-218.52C358.46,-228.41 370,-241.34 381,-252 391.05,-261.73 402.77,-271.8 412.97,-280.19"/>
<polygon fill="black" stroke="black" points="410.79,-282.93 420.75,-286.52 415.2,-277.5 410.79,-282.93"/>
<text text-anchor="middle" x="387.5" y="-266.8" font-family="Helvetica,Arial,sans-serif" font-size="14.00">&#45;4</text>
</g>
<!-- 0&#45;&gt;3 -->
<g id="edge15" class="edge">
<title>0&#45;&gt;3</title>
<path fill="none" stroke="black" d="M361.28,-196.67C375.94,-192.9 395.02,-188.06 412,-184 443.79,-176.4 480.12,-168.28 506.11,-162.58"/>
<polygon fill="black" stroke="black" points="507.2,-165.92 516.22,-160.36 505.71,-159.08 507.2,-165.92"/>
<text text-anchor="middle" x="439" y="-187.8" font-family="Helvetica,Arial,sans-serif" font-size="14.00">&#45;5</text>
</g>
<!-- 0&#45;&gt;2 -->
<g id="edge16" class="edge">
<title>0&#45;&gt;2</title>
<path fill="none" stroke="black" d="M312.17,-194.41C298.63,-189.32 281.25,-182.78 266.31,-177.16"/>
<polygon fill="black" stroke="black" points="267.51,-173.87 256.92,-173.62 265.05,-180.42 267.51,-173.87"/>
<text text-anchor="middle" x="284.5" y="-190.8" font-family="Helvetica,Arial,sans-serif" font-size="14.00">&#45;4</text>
</g>
<!-- 2&#45;&gt;4 -->
<g id="edge18" class="edge">
<title>2&#45;&gt;4</title>
<path fill="none" stroke="black" d="M209.17,-173.59C195.63,-178.68 178.25,-185.22 163.31,-190.84"/>
<polygon fill="black" stroke="black" points="162.05,-187.58 153.92,-194.38 164.51,-194.13 162.05,-187.58"/>
<text text-anchor="middle" x="181.5" y="-190.8" font-family="Helvetica,Arial,sans-serif" font-size="14.00">&#45;6</text>
</g>
<!-- 2&#45;&gt;3 -->
<g id="edge17" class="edge">
<title>2&#45;&gt;3</title>
<path fill="none" stroke="black" d="M258.12,-158.07C264.56,-156.32 271.52,-154.51 278,-153 328.95,-141.12 341.83,-129.12 394,-133 432.56,-135.87 476.34,-142.92 506.02,-148.27"/>
<polygon fill="black" stroke="black" points="505.43,-151.72 515.9,-150.08 506.69,-144.83 505.43,-151.72"/>
<text text-anchor="middle" x="387.5" y="-136.8" font-family="Helvetica,Arial,sans-serif" font-size="14.00">1</text>
</g>
<!-- 2&#45;&gt;0 -->
<g id="edge19" class="edge">
<title>2&#45;&gt;0</title>
<path fill="none" stroke="black" d="M259.12,-159.9C269.32,-158.9 281.03,-159.14 291,-163 300.19,-166.55 308.65,-173.02 315.64,-179.73"/>
<polygon fill="black" stroke="black" points="313.16,-182.2 322.61,-186.99 318.2,-177.35 313.16,-182.2"/>
<text text-anchor="middle" x="284.5" y="-166.8" font-family="Helvetica,Arial,sans-serif" font-size="14.00">4</text>
</g>
</g>
</svg>
